<?xml version="1.0" standalone="no"?>
<!DOCTYPE svg PUBLIC "-//W3C//DTD SVG 20010904//EN"
 "http://www.w3.org/TR/2001/REC-SVG-20010904/DTD/svg10.dtd">
<svg version="1.0" xmlns="http://www.w3.org/2000/svg"
 width="90.000000pt" height="90.000000pt" viewBox="0 0 90.000000 90.000000"
 preserveAspectRatio="xMidYMid meet">

<g transform="translate(0.000000,90.000000) scale(0.100000,-0.100000)"
fill="#000000" stroke="none">
<path d="M570 795 c-14 -7 -43 -17 -65 -20 -22 -4 -59 -16 -82 -27 -24 -11
-73 -23 -110 -26 -51 -5 -68 -11 -68 -22 0 -22 63 -49 122 -52 l53 -3 0 -36
c0 -36 -1 -37 -42 -42 -24 -2 -52 -7 -63 -11 -15 -5 -45 12 -118 64 -54 39
-106 70 -115 68 -27 -5 -53 -129 -46 -218 9 -102 53 -224 82 -228 35 -5 36 21
7 101 -20 55 -27 95 -28 158 -1 46 2 90 6 96 6 9 34 -6 97 -52 50 -36 95 -65
100 -65 6 0 24 7 39 14 27 15 28 14 23 -10 -3 -19 0 -26 15 -30 15 -4 19 -12
15 -30 -3 -16 1 -26 12 -30 10 -4 16 -18 16 -38 0 -28 -7 -35 -58 -63 -56 -30
-59 -35 -77 -93 -13 -43 -15 -64 -8 -71 22 -22 46 -4 63 45 10 30 25 53 40 62
35 19 38 18 42 -18 2 -28 7 -33 28 -33 21 0 26 5 28 33 4 36 7 37 42 18 15 -9
30 -32 40 -62 17 -49 41 -67 63 -45 7 7 5 28 -8 71 -18 58 -21 63 -77 93 -51
28 -58 35 -58 63 0 20 6 34 16 38 11 4 15 14 12 30 -4 18 0 26 15 30 15 4 18
11 15 30 -5 24 -4 25 23 10 15 -7 33 -14 38 -14 6 0 49 27 95 60 47 33 89 60
94 60 31 0 23 -151 -15 -258 -27 -79 -25 -105 9 -100 29 4 73 126 82 228 7 89
-19 213 -46 218 -9 2 -61 -29 -115 -68 -73 -53 -103 -69 -118 -64 -11 3 -39 9
-62 11 l-43 5 0 49 c0 47 1 49 53 82 62 41 102 81 92 96 -8 14 -25 13 -55 -4z"/>
</g>
</svg>
