<?xml version="1.0" standalone="no"?>
<!DOCTYPE svg PUBLIC "-//W3C//DTD SVG 20010904//EN"
 "http://www.w3.org/TR/2001/REC-SVG-20010904/DTD/svg10.dtd">
<svg version="1.0" xmlns="http://www.w3.org/2000/svg"
 width="2560.000000pt" height="1249.000000pt" viewBox="0 0 2560.000000 1249.000000"
 preserveAspectRatio="xMidYMid meet">

<g transform="translate(0.000000,1249.000000) scale(0.100000,-0.100000)"
fill="#000000" stroke="none">
<path d="M8495 11349 c-235 -31 -536 -155 -795 -329 -311 -209 -639 -561 -872
-935 -118 -189 -199 -339 -350 -645 -269 -548 -386 -726 -566 -858 -176 -130
-306 -164 -712 -184 l-236 -11 -34 -156 c-18 -86 -36 -164 -38 -173 -4 -17 26
-18 522 -18 324 0 526 -4 526 -9 0 -6 -220 -797 -489 -1758 -269 -961 -558
-1993 -641 -2292 -337 -1210 -429 -1488 -601 -1821 -94 -182 -181 -302 -319
-441 -161 -162 -329 -266 -526 -325 -116 -35 -308 -40 -362 -11 -37 20 -67 77
-57 108 4 11 36 52 71 91 75 84 103 137 111 210 10 99 -37 197 -127 263 -70
52 -122 68 -220 68 -401 2 -621 -417 -379 -724 74 -94 250 -198 404 -241 115
-31 364 -31 515 1 363 77 714 271 1019 566 490 473 946 1275 1331 2340 268
744 395 1171 826 2783 l318 1192 406 0 405 0 44 158 c24 86 46 165 49 175 4
16 -20 17 -397 17 -220 0 -401 2 -401 4 0 22 351 1072 461 1377 206 574 487
1016 772 1211 148 101 279 142 452 143 110 0 124 -2 164 -25 61 -34 81 -66 83
-124 0 -39 -10 -69 -60 -171 -34 -67 -66 -144 -73 -169 -36 -143 58 -307 209
-368 82 -33 251 -32 335 1 194 76 309 298 268 513 -43 220 -262 442 -516 524
-154 49 -347 65 -520 43z"/>
<path d="M13565 11306 c-997 -477 -1803 -1312 -2346 -2431 -359 -739 -542
-1491 -579 -2371 -31 -729 71 -1449 305 -2149 246 -738 589 -1348 1076 -1916
405 -473 879 -847 1487 -1174 86 -47 160 -85 164 -85 14 0 9 207 -4 213 -7 3
-76 52 -153 109 -566 421 -977 908 -1251 1483 -181 380 -315 854 -424 1498
-62 368 -101 735 -132 1227 -18 304 -15 1106 5 1390 88 1196 336 2167 723
2827 292 499 669 881 1157 1172 l87 53 0 104 c0 57 -1 104 -2 103 -2 0 -52
-24 -113 -53z"/>
<path d="M20250 11256 l0 -103 41 -28 c156 -103 398 -298 569 -459 357 -335
685 -804 881 -1261 199 -464 374 -1275 449 -2075 44 -474 64 -1296 41 -1725
-63 -1206 -305 -2239 -683 -2920 -291 -524 -687 -939 -1185 -1240 l-113 -68 0
-99 c0 -80 3 -98 15 -98 21 0 383 186 495 255 233 142 453 302 645 468 130
113 392 375 501 502 709 829 1183 1883 1333 2965 47 338 55 478 55 895 0 393
-4 480 -40 765 -111 886 -433 1769 -911 2500 -319 486 -710 917 -1123 1236
-248 192 -575 397 -867 543 l-103 51 0 -104z"/>
<path d="M15795 8409 c-346 -60 -672 -116 -722 -125 l-93 -16 0 -97 0 -96 247
0 c217 -1 259 -3 339 -22 277 -65 423 -196 559 -499 51 -114 90 -253 281
-1011 l139 -552 -54 -108 c-150 -304 -590 -1005 -841 -1343 -209 -281 -410
-484 -510 -515 -71 -22 -130 3 -257 112 -163 139 -259 185 -388 185 -177 0
-329 -105 -387 -268 -28 -80 -28 -216 0 -296 38 -109 124 -198 252 -263 130
-66 305 -78 463 -31 325 96 604 335 978 836 205 274 442 636 699 1065 79 131
145 235 146 230 2 -6 37 -161 78 -345 186 -832 309 -1303 380 -1454 95 -201
245 -329 418 -356 108 -16 195 3 332 73 265 136 630 492 875 852 78 113 170
263 205 334 l24 47 -95 48 c-52 26 -96 46 -97 44 -2 -2 -20 -34 -40 -73 -125
-232 -365 -521 -523 -628 -53 -37 -150 -76 -186 -77 -82 0 -160 77 -207 207
-47 132 -54 158 -315 1246 l-244 1018 96 162 c234 395 426 661 612 848 131
132 214 194 307 229 93 34 151 26 399 -61 l150 -53 130 0 c129 -1 130 -1 205
35 97 47 161 104 191 171 21 47 24 68 24 188 0 131 -1 137 -32 203 -104 219
-383 317 -675 236 -189 -53 -436 -227 -708 -499 -193 -194 -268 -291 -541
-710 -127 -195 -237 -361 -243 -368 -10 -10 -17 8 -36 80 -48 192 -180 648
-224 776 -54 154 -110 271 -193 397 -67 101 -204 274 -255 321 l-33 31 -630
-108z"/>
</g>
</svg>
